<svg width="140" height="160" viewBox="0 0 140 160" fill="none" xmlns="http://www.w3.org/2000/svg">
<path d="M63.336 156.064C75.3493 156.064 86.02 154.015 95.348 149.916C104.676 145.817 111.955 139.74 117.184 131.684C122.413 123.628 125.028 113.593 125.028 101.58C125.028 90.2734 122.837 81.1574 118.456 74.2321C114.216 67.3067 108.492 62.2894 101.284 59.1801C94.076 55.9294 86.0907 54.3041 77.328 54.3041C73.7947 54.3041 70.6853 54.5161 68 54.9401C65.456 55.3641 63.2653 55.8587 61.428 56.424C59.732 56.9894 58.3893 57.3427 57.4 57.4841V42.8561H115.276V3.00005H16.06V96.4921H19.24C23.056 95.22 26.9427 94.2307 30.9 93.524C34.9987 92.6761 38.8853 92.1107 42.56 91.828C46.2347 91.404 49.4853 91.1921 52.312 91.1921C60.9333 91.1921 67.2227 92.0401 71.18 93.7361C75.1373 95.4321 77.116 98.0467 77.116 101.58C77.116 103.983 76.4093 106.032 74.996 107.728C73.5827 109.283 71.18 110.484 67.788 111.332C64.396 112.039 59.8027 112.392 54.008 112.392C50.4747 112.392 46.2347 112.039 41.288 111.332C36.3413 110.625 31.4653 109.565 26.66 108.152C21.8547 106.597 17.968 104.76 15 102.64V145.252C18.2507 147.655 22.7027 149.704 28.356 151.4C34.0093 152.955 39.9453 154.085 46.164 154.792C52.3827 155.64 58.1067 156.064 63.336 156.064Z" fill="#9A1750"/>
</svg>
