<svg width="140" height="160" viewBox="0 0 140 160" fill="none" xmlns="http://www.w3.org/2000/svg">
<path d="M64.248 159.408C76.056 159.408 86.424 157.608 95.352 154.008C104.424 150.264 111.48 144.72 116.52 137.376C121.56 129.888 124.08 120.6 124.08 109.512C124.08 102.744 122.64 96.912 119.76 92.016C117.024 87.12 112.776 82.008 107.016 76.68C111.48 72.792 115.008 68.616 117.6 64.152C120.336 59.544 121.704 54.36 121.704 48.6C121.56 38.664 119.184 30.096 114.576 22.896C109.968 15.552 103.272 9.936 94.488 6.048C85.848 2.016 75.48 0 63.384 0C57.192 0 51.072 0.719999 45.024 2.16C39.12 3.6 33.576 5.616 28.392 8.208C23.208 10.656 18.744 13.536 15 16.848V60.696C19.176 56.952 23.64 53.784 28.392 51.192C33.144 48.456 37.824 46.44 42.432 45.144C47.04 43.704 51.144 42.984 54.744 42.984C58.056 42.984 61.08 43.272 63.816 43.848C66.696 44.424 68.928 45.432 70.512 46.872C72.24 48.312 73.104 50.328 73.104 52.92C73.104 55.512 72.456 57.744 71.16 59.616C69.864 61.344 67.272 62.64 63.384 63.504C59.496 64.368 53.592 64.8 45.672 64.8V95.904C53.88 95.904 60.072 96.264 64.248 96.984C68.568 97.56 71.448 98.64 72.888 100.224C74.472 101.664 75.264 103.608 75.264 106.056C75.264 108.504 74.472 110.52 72.888 112.104C71.304 113.544 69.216 114.624 66.624 115.344C64.032 115.92 61.152 116.208 57.984 116.208C53.664 116.208 49.056 115.56 44.16 114.264C39.408 112.968 34.512 110.952 29.472 108.216C24.576 105.336 19.752 101.736 15 97.416V143.424C19.032 146.592 23.64 149.4 28.824 151.848C34.008 154.152 39.552 155.952 45.456 157.248C51.504 158.688 57.768 159.408 64.248 159.408Z" fill="#9A1750"/>
</svg>
