<svg width="140" height="160" viewBox="0 0 140 160" fill="none" xmlns="http://www.w3.org/2000/svg">
<path d="M12 158.384H127.128V114.968H83.496L94.512 105.032C96.96 102.728 99.912 100.064 103.368 97.04C106.824 94.016 110.208 90.56 113.52 86.672C116.976 82.64 119.784 78.104 121.944 73.064C124.248 68.024 125.4 62.336 125.4 56C125.4 45.2 123.096 35.768 118.488 27.704C114.024 19.496 107.256 13.16 98.184 8.696C89.256 4.232 78.096 2 64.704 2C57.936 2 51.384 2.792 45.048 4.376C38.712 5.816 32.736 7.832 27.12 10.424C21.504 12.872 16.608 15.608 12.432 18.632V68.096C17.76 63.056 23.016 58.88 28.2 55.568C33.384 52.256 38.568 49.808 43.752 48.224C48.936 46.496 54.048 45.632 59.088 45.632C65.136 45.632 69.528 46.856 72.264 49.304C75 51.608 76.368 54.92 76.368 59.24C76.368 62.552 75.288 65.792 73.128 68.96C71.112 71.984 67.584 75.728 62.544 80.192C57.504 84.512 50.664 90.272 42.024 97.472L12 122.096V158.384Z" fill="#9A1750"/>
</svg>
